<svg width="53" height="12" viewBox="0 0 53 12" fill="none" xmlns="http://www.w3.org/2000/svg">
<path d="M5.13281 5.33156C5.0625 5.48 4.96484 5.62063 4.83984 5.75344C4.72266 5.88625 4.60938 6.01125 4.5 6.12844C4.41406 6.21438 4.33984 6.30813 4.27734 6.40969C4.21484 6.51125 4.14453 6.605 4.06641 6.69094C4.00391 6.76125 3.94141 6.82766 3.87891 6.89016C3.81641 6.94484 3.75781 7.00734 3.70312 7.07766C3.66406 7.10891 3.625 7.14016 3.58594 7.17141C3.55469 7.20266 3.52344 7.24172 3.49219 7.28859C3.60938 7.53859 3.74609 7.76516 3.90234 7.96828C4.06641 8.17141 4.23438 8.37453 4.40625 8.57766C4.49219 8.67922 4.57812 8.77688 4.66406 8.87063C4.75 8.95656 4.82422 9.05031 4.88672 9.15188C4.94141 9.26906 4.99609 9.35891 5.05078 9.42141C5.11328 9.47609 5.16797 9.53469 5.21484 9.59719C5.26172 9.67531 5.30078 9.74563 5.33203 9.80813C5.37109 9.86281 5.42188 9.9175 5.48438 9.97219C5.48438 10.0113 5.50781 10.0503 5.55469 10.0894C5.60156 10.1206 5.63281 10.1558 5.64844 10.1948C5.64844 10.2339 5.64844 10.2652 5.64844 10.2886C5.65625 10.312 5.66016 10.3316 5.66016 10.3472C5.63672 10.4097 5.59375 10.4644 5.53125 10.5113C5.47656 10.5503 5.42578 10.5933 5.37891 10.6402C5.30078 10.6402 5.23438 10.6636 5.17969 10.7105C5.125 10.7573 5.05078 10.7808 4.95703 10.7808C4.91797 10.812 4.88672 10.8472 4.86328 10.8863C4.83984 10.9175 4.80859 10.9488 4.76953 10.98C4.70703 10.98 4.64844 10.9956 4.59375 11.0269C4.54688 11.0659 4.49219 11.0933 4.42969 11.1089C4.35156 11.062 4.28906 11.0034 4.24219 10.9331C4.19531 10.855 4.13281 10.7964 4.05469 10.7573C4.04688 10.7183 4.03125 10.687 4.00781 10.6636C3.99219 10.6323 3.97656 10.6011 3.96094 10.5698C3.82812 10.4214 3.70312 10.2652 3.58594 10.1011C3.46875 9.93703 3.35156 9.77297 3.23438 9.60891C3.17188 9.53859 3.10547 9.47219 3.03516 9.40969C2.97266 9.33938 2.91016 9.26516 2.84766 9.18703C2.80859 9.14016 2.76953 9.08547 2.73047 9.02297C2.69141 8.96047 2.64844 8.90188 2.60156 8.84719C2.54688 8.80031 2.5 8.74563 2.46094 8.68313C2.42188 8.62063 2.375 8.56984 2.32031 8.53078C2.25 8.56984 2.1875 8.62063 2.13281 8.68313C2.07812 8.74563 2.01562 8.80031 1.94531 8.84719C1.88281 8.90188 1.82031 8.95656 1.75781 9.01125C1.70312 9.06594 1.64453 9.11672 1.58203 9.16359C1.56641 9.34328 1.55859 9.51906 1.55859 9.69094C1.55859 9.855 1.55859 10.0191 1.55859 10.1831C1.55859 10.3159 1.55469 10.4448 1.54688 10.5698C1.54688 10.687 1.53125 10.8081 1.5 10.9331C1.46094 10.9409 1.42188 10.9214 1.38281 10.8745C1.35156 10.8198 1.31641 10.7886 1.27734 10.7808C1.24609 10.7886 1.21875 10.8042 1.19531 10.8277C1.17969 10.8511 1.15234 10.855 1.11328 10.8394C1.07422 10.8784 1.01562 10.9136 0.9375 10.9448C0.898438 10.9448 0.855469 10.9527 0.808594 10.9683C0.761719 10.9761 0.71875 10.98 0.679688 10.98C0.617188 10.98 0.574219 10.9722 0.550781 10.9566C0.472656 11.0113 0.40625 11.0386 0.351562 11.0386C0.304688 11.0464 0.265625 11.0503 0.234375 11.0503C0.21875 10.9956 0.203125 10.9448 0.1875 10.898C0.171875 10.8433 0.160156 10.7847 0.152344 10.7222C0.128906 10.6909 0.109375 10.6558 0.09375 10.6167C0.0859375 10.5777 0.0742188 10.5386 0.0585938 10.4995C0.0664062 10.4761 0.0703125 10.4488 0.0703125 10.4175C0.0703125 10.3863 0.0703125 10.355 0.0703125 10.3238C0.0703125 10.1909 0.0664062 10.062 0.0585938 9.93703C0.0507812 9.81203 0.0546875 9.68313 0.0703125 9.55031C0.0546875 9.51125 0.0429688 9.47219 0.0351562 9.43313C0.0273438 9.39406 0.0234375 9.355 0.0234375 9.31594C0.0234375 9.2925 0.0234375 9.26516 0.0234375 9.23391C0.03125 9.20266 0.0429688 9.17922 0.0585938 9.16359C0.0351562 9.06203 0.0195312 8.95656 0.0117188 8.84719C0.0117188 8.73 0.0117188 8.62063 0.0117188 8.51906C0.0117188 8.46438 0.015625 8.40969 0.0234375 8.355C0.0390625 8.2925 0.046875 8.23 0.046875 8.1675C0.046875 8.03469 0.0390625 7.90578 0.0234375 7.78078C0.0078125 7.65578 0 7.53078 0 7.40578C0.0078125 7.31984 0.0117188 7.25344 0.0117188 7.20656C0.0117188 7.15969 0.015625 7.11281 0.0234375 7.06594C0.03125 7.01906 0.0273438 6.97219 0.0117188 6.92531C0.0195312 6.88625 0.0273438 6.85891 0.0351562 6.84328C0.0507812 6.81984 0.0585938 6.78859 0.0585938 6.74953C0.0585938 6.64797 0.0585938 6.55031 0.0585938 6.45656C0.0664062 6.355 0.0703125 6.24953 0.0703125 6.14016C0.0703125 6.06203 0.0703125 5.98781 0.0703125 5.9175C0.078125 5.83938 0.0820312 5.75734 0.0820312 5.67141C0.0820312 5.60109 0.0859375 5.53469 0.09375 5.47219C0.109375 5.40969 0.121094 5.34719 0.128906 5.28469C0.136719 5.21438 0.140625 5.14797 0.140625 5.08547C0.140625 5.01516 0.140625 4.94875 0.140625 4.88625C0.140625 4.72219 0.140625 4.55813 0.140625 4.39406C0.140625 4.22219 0.132812 4.05422 0.117188 3.89016C0.109375 3.85109 0.101562 3.80813 0.09375 3.76125C0.0859375 3.71438 0.0820312 3.6675 0.0820312 3.62063C0.0664062 3.47219 0.0546875 3.31984 0.046875 3.16359C0.0390625 3.00734 0.0234375 2.85109 0 2.69484C0.015625 2.67141 0.0234375 2.64797 0.0234375 2.62453C0.0234375 2.59328 0.0234375 2.56594 0.0234375 2.5425C0.0234375 2.50344 0.0234375 2.46828 0.0234375 2.43703C0.0234375 2.39797 0.0195312 2.35891 0.0117188 2.31984C0.0273438 2.30422 0.0429688 2.28859 0.0585938 2.27297C0.0742188 2.24953 0.0898438 2.23 0.105469 2.21438C0.152344 2.21438 0.199219 2.21828 0.246094 2.22609C0.300781 2.22609 0.347656 2.24172 0.386719 2.27297C0.425781 2.25734 0.46875 2.24172 0.515625 2.22609C0.570312 2.20266 0.617188 2.19094 0.65625 2.19094C0.71875 2.19094 0.765625 2.20656 0.796875 2.23781C0.835938 2.22219 0.855469 2.20656 0.855469 2.19094C0.863281 2.1675 0.894531 2.15578 0.949219 2.15578C1.05078 2.14797 1.12109 2.14406 1.16016 2.14406C1.20703 2.14406 1.25 2.14016 1.28906 2.13234C1.3125 2.14797 1.33203 2.1675 1.34766 2.19094C1.36328 2.21438 1.37891 2.23781 1.39453 2.26125C1.56641 2.32375 1.70312 2.41359 1.80469 2.53078C1.91406 2.64016 2.03516 2.73391 2.16797 2.81203C2.19922 2.83547 2.23047 2.855 2.26172 2.87063C2.29297 2.88625 2.32422 2.90188 2.35547 2.9175C2.42578 2.96438 2.49609 3.01516 2.56641 3.06984C2.63672 3.12453 2.71094 3.17141 2.78906 3.21047C2.86719 3.24953 2.91016 3.27297 2.91797 3.28078C2.93359 3.28078 2.94531 3.28859 2.95312 3.30422C3.125 3.36672 3.27734 3.45266 3.41016 3.56203C3.55078 3.66359 3.69922 3.75734 3.85547 3.84328C3.91016 3.87453 3.97656 3.90578 4.05469 3.93703C4.14062 3.96828 4.22266 4.00344 4.30078 4.0425C4.38672 4.07375 4.46484 4.10891 4.53516 4.14797C4.61328 4.18703 4.67188 4.23 4.71094 4.27688C4.79688 4.36281 4.87109 4.42531 4.93359 4.46438C5.00391 4.49563 5.07031 4.53469 5.13281 4.58156L5.14453 4.89797C5.14453 4.95266 5.13672 5.00344 5.12109 5.05031C5.11328 5.09719 5.10938 5.14797 5.10938 5.20266C5.10938 5.24172 5.11719 5.28469 5.13281 5.33156ZM3.52734 5.02688C3.44141 4.98 3.35547 4.93703 3.26953 4.89797C3.18359 4.85109 3.10938 4.78859 3.04688 4.71047C2.99219 4.69484 2.89453 4.65969 2.75391 4.605C2.61328 4.5425 2.46875 4.48 2.32031 4.4175C2.17969 4.34719 2.04688 4.28859 1.92188 4.24172C1.80469 4.18703 1.73828 4.15969 1.72266 4.15969C1.69922 4.1675 1.6875 4.21828 1.6875 4.31203C1.6875 4.40578 1.6875 4.50734 1.6875 4.61672C1.6875 4.72609 1.6875 4.83156 1.6875 4.93313C1.6875 5.03469 1.6875 5.09719 1.6875 5.12063C1.6875 5.26906 1.68359 5.41359 1.67578 5.55422C1.66797 5.69484 1.65625 5.83938 1.64062 5.98781C1.625 6.01125 1.61328 6.03469 1.60547 6.05813C1.59766 6.07375 1.58984 6.09328 1.58203 6.11672C1.56641 6.22609 1.55859 6.37063 1.55859 6.55031C1.55859 6.73 1.55859 6.87453 1.55859 6.98391C1.55859 7.03859 1.55859 7.08938 1.55859 7.13625C1.55859 7.18313 1.5625 7.23781 1.57031 7.30031C1.60938 7.30031 1.63672 7.2925 1.65234 7.27688C1.66797 7.25344 1.69531 7.23391 1.73438 7.21828C1.83594 7.10891 1.9375 7.00344 2.03906 6.90188C2.14062 6.80031 2.24609 6.69484 2.35547 6.58547C2.40234 6.53859 2.44922 6.48781 2.49609 6.43313C2.54297 6.37844 2.59375 6.33156 2.64844 6.2925C2.6875 6.24563 2.72266 6.20266 2.75391 6.16359C2.78516 6.11672 2.82031 6.07375 2.85938 6.03469C2.96875 5.9175 3.08203 5.80422 3.19922 5.69484C3.31641 5.57766 3.41406 5.44875 3.49219 5.30813C3.54688 5.26906 3.59766 5.20656 3.64453 5.12063C3.58984 5.11281 3.55078 5.08156 3.52734 5.02688ZM6.35484 10.7925C6.33141 10.8081 6.30797 10.8238 6.28453 10.8394C6.26109 10.855 6.23766 10.8706 6.21422 10.8863C6.12828 10.9331 6.05016 10.9605 5.97984 10.9683C5.90953 10.9683 5.83141 11.0073 5.74547 11.0855C5.71422 11.0464 5.69078 11.0269 5.67516 11.0269C5.65953 11.0269 5.63219 11.0269 5.59312 11.0269C5.49156 11.0269 5.43297 10.9995 5.41734 10.9448C5.38609 10.9527 5.33531 10.9722 5.265 11.0034C5.2025 11.0347 5.15562 11.0581 5.12437 11.0738C5.19469 10.9722 5.24156 10.8941 5.265 10.8394C5.28844 10.7847 5.30016 10.7339 5.30016 10.687C5.30797 10.6402 5.31187 10.5933 5.31187 10.5464C5.31969 10.4917 5.33922 10.4175 5.37047 10.3238C5.38609 10.2925 5.39781 10.2613 5.40562 10.23C5.41344 10.1988 5.42516 10.1636 5.44078 10.1245C5.47984 10.0073 5.51109 9.87453 5.53453 9.72609C5.56578 9.57766 5.61266 9.44875 5.67516 9.33938C5.67516 9.20656 5.7025 9.08156 5.75719 8.96438C5.81969 8.84719 5.87047 8.72609 5.90953 8.60109C5.92516 8.55422 5.94469 8.50734 5.96812 8.46047C5.99937 8.41359 6.02281 8.36672 6.03844 8.31984C6.06969 8.24172 6.09312 8.1675 6.10875 8.09719C6.13219 8.01906 6.15562 7.94484 6.17906 7.87453C6.24156 7.64797 6.30406 7.42531 6.36656 7.20656C6.42906 6.98 6.48766 6.75344 6.54234 6.52688C6.55016 6.48781 6.55797 6.44484 6.56578 6.39797C6.58141 6.35109 6.59703 6.30813 6.61266 6.26906C6.65172 6.15188 6.67516 6.03469 6.68297 5.9175C6.69859 5.7925 6.73766 5.67531 6.80016 5.56594C6.79234 5.51125 6.79234 5.46047 6.80016 5.41359C6.81578 5.36672 6.83141 5.31594 6.84703 5.26125C6.86266 5.20656 6.87828 5.15578 6.89391 5.10891C6.90953 5.06203 6.92125 5.02688 6.92906 5.00344C6.96812 4.90188 6.99547 4.81203 7.01109 4.73391C7.03453 4.64797 7.0775 4.55813 7.14 4.46438C7.14 4.46438 7.15172 4.42531 7.17516 4.34719C7.19859 4.26125 7.22594 4.1675 7.25719 4.06594C7.28844 3.96438 7.31578 3.87063 7.33922 3.78469C7.36266 3.69094 7.37437 3.63625 7.37437 3.62063C7.39 3.55813 7.40172 3.49953 7.40953 3.44484C7.42516 3.39016 7.44078 3.33156 7.45641 3.26906C7.47203 3.23 7.48766 3.19875 7.50328 3.17531C7.51891 3.14406 7.53453 3.10891 7.55016 3.06984C7.57359 2.98391 7.59703 2.87844 7.62047 2.75344C7.64391 2.62844 7.67516 2.53078 7.71422 2.46047C7.73766 2.40578 7.78062 2.36281 7.84312 2.33156C7.91344 2.2925 7.97203 2.25344 8.01891 2.21438C8.15953 2.23 8.26109 2.22219 8.32359 2.19094C8.39391 2.15969 8.46031 2.12063 8.52281 2.07375C8.56187 2.08156 8.59703 2.09328 8.62828 2.10891C8.66734 2.11672 8.70641 2.12063 8.74547 2.12063C8.89391 2.28469 8.99547 2.45266 9.05016 2.62453C9.11266 2.79641 9.17125 2.96828 9.22594 3.14016C9.24937 3.22609 9.27281 3.31203 9.29625 3.39797C9.31969 3.47609 9.34703 3.55422 9.37828 3.63234C9.38609 3.65578 9.39781 3.68313 9.41344 3.71438C9.42906 3.73781 9.44469 3.76516 9.46031 3.79641C9.49937 3.85891 9.53062 3.92531 9.55406 3.99563C9.58531 4.06594 9.61266 4.13625 9.63609 4.20656C9.68297 4.26125 9.71812 4.32766 9.74156 4.40578C9.765 4.47609 9.78453 4.55031 9.80016 4.62844C9.82359 4.69875 9.84703 4.76906 9.87047 4.83938C9.89391 4.90188 9.92906 4.95656 9.97594 5.00344C9.99156 5.08938 10.0189 5.17531 10.058 5.26125C10.097 5.33938 10.1244 5.42531 10.14 5.51906C10.1869 5.58156 10.2416 5.70266 10.3041 5.88234C10.3666 6.05422 10.4291 6.24172 10.4916 6.44484C10.5541 6.64797 10.6127 6.84328 10.6673 7.03078C10.722 7.21828 10.7611 7.35109 10.7845 7.42922C10.8002 7.49172 10.8314 7.57375 10.8783 7.67531C10.9252 7.76906 10.9681 7.855 11.0072 7.93313C11.0384 8.01906 11.0697 8.10891 11.1009 8.20266C11.14 8.29641 11.1712 8.38625 11.1947 8.47219C11.2103 8.55813 11.2259 8.64016 11.2416 8.71828C11.265 8.79641 11.2884 8.87844 11.3119 8.96438C11.3275 9.01906 11.3509 9.06984 11.3822 9.11672C11.4134 9.15578 11.4369 9.20656 11.4525 9.26906C11.4837 9.33156 11.5033 9.39016 11.5111 9.44484C11.5267 9.49953 11.5541 9.55813 11.5931 9.62063C11.5853 9.70656 11.5892 9.76125 11.6048 9.78469C11.6205 9.80813 11.6361 9.83547 11.6517 9.86672C11.683 10.0308 11.7181 10.1636 11.7572 10.2652C11.7962 10.3589 11.8158 10.4605 11.8158 10.5698C11.8158 10.6636 11.7962 10.7222 11.7572 10.7456C11.7259 10.7691 11.683 10.8081 11.6283 10.8628C11.5658 10.9175 11.5111 10.9605 11.4642 10.9917C11.4252 11.023 11.3627 11.0386 11.2767 11.0386C11.183 11.0308 11.1244 11.0425 11.1009 11.0738C11.0853 11.1128 11.0736 11.1402 11.0658 11.1558C10.972 11.148 10.9095 11.1441 10.8783 11.1441C10.8548 11.1519 10.8275 11.1558 10.7962 11.1558C10.7728 11.1558 10.7455 11.1597 10.7142 11.1675C10.6908 11.1831 10.6634 11.2105 10.6322 11.2495C10.5775 11.187 10.5228 11.1284 10.4681 11.0738C10.4212 11.0269 10.3783 10.9722 10.3392 10.9097C10.3392 10.7769 10.3197 10.6206 10.2806 10.4409C10.2494 10.2613 10.2142 10.1206 10.1752 10.0191C10.097 9.81594 10.0228 9.61672 9.9525 9.42141C9.89 9.22609 9.8275 9.02688 9.765 8.82375C9.74156 8.73781 9.71422 8.65969 9.68297 8.58938C9.65953 8.51906 9.63219 8.44484 9.60094 8.36672C9.61656 8.42922 9.62047 8.49563 9.61266 8.56594C9.61266 8.62844 9.59312 8.69094 9.55406 8.75344C9.53844 8.76906 9.515 8.78859 9.48375 8.81203C9.4525 8.83547 9.43687 8.855 9.43687 8.87063C9.34312 8.94875 9.26109 9.02297 9.19078 9.09328C9.19859 9.23391 9.17906 9.33156 9.13219 9.38625C9.08531 9.44094 9.03453 9.49172 8.97984 9.53859C8.84703 9.54641 8.765 9.53859 8.73375 9.51516C8.7025 9.49172 8.65953 9.47609 8.60484 9.46828C8.57359 9.46047 8.54234 9.46047 8.51109 9.46828C8.47984 9.46828 8.44859 9.46828 8.41734 9.46828C8.35484 9.46828 8.29625 9.45266 8.24156 9.42141C8.21812 9.40578 8.19859 9.39016 8.18297 9.37453C8.17516 9.35891 8.16344 9.34328 8.14781 9.32766C8.08531 9.26516 8.01109 9.21438 7.92516 9.17531C7.84703 9.12844 7.76891 9.08938 7.69078 9.05813C7.62828 9.00344 7.56187 8.94875 7.49156 8.89406C7.42906 8.83156 7.36266 8.78078 7.29234 8.74172C7.22984 8.89016 7.17906 9.02297 7.14 9.14016C7.10875 9.24953 7.06969 9.35891 7.02281 9.46828C6.93687 9.73391 6.86656 9.96828 6.81187 10.1714C6.75719 10.3667 6.69469 10.5659 6.62437 10.7691C6.59312 10.7769 6.56187 10.7886 6.53062 10.8042C6.50719 10.8198 6.47594 10.8277 6.43687 10.8277L6.35484 10.7925ZM7.50328 8.29641C7.56578 8.18703 7.62047 8.12844 7.66734 8.12063C7.72203 8.105 7.76891 8.07375 7.80797 8.02688C7.82359 8.01125 7.83922 7.99172 7.85484 7.96828C7.87828 7.94484 7.90172 7.92141 7.92516 7.89797C7.94859 7.88234 7.97594 7.86672 8.00719 7.85109C8.03844 7.83547 8.06578 7.81594 8.08922 7.7925C8.15172 7.73781 8.2025 7.69094 8.24156 7.65188C8.28844 7.61281 8.35484 7.59328 8.44078 7.59328C8.57359 7.59328 8.68297 7.62844 8.76891 7.69875C8.85484 7.76125 8.96031 7.80422 9.08531 7.82766C9.10094 7.87453 9.15172 7.90969 9.23766 7.93313C9.32359 7.94875 9.39 7.97219 9.43687 8.00344C9.35875 7.80813 9.29625 7.61281 9.24937 7.4175C9.21031 7.21438 9.15953 7.01516 9.09703 6.81984C9.05016 6.64797 8.99547 6.48 8.93297 6.31594C8.87047 6.14406 8.80797 5.98 8.74547 5.82375C8.69078 5.6675 8.64391 5.51516 8.60484 5.36672C8.56578 5.21828 8.515 5.07375 8.4525 4.93313C8.39 5.07375 8.3275 5.24563 8.265 5.44875C8.2025 5.65188 8.15562 5.83156 8.12437 5.98781C8.12437 6.05813 8.12047 6.11281 8.11266 6.15188C8.09703 6.20656 8.08141 6.25734 8.06578 6.30422C8.05016 6.34328 8.03453 6.38625 8.01891 6.43313C7.91734 6.73781 7.82359 7.04641 7.73766 7.35891C7.65953 7.67141 7.56578 7.98391 7.45641 8.29641H7.50328ZM16.9402 2.68313C16.8542 2.83938 16.7566 3.02297 16.6472 3.23391C16.5378 3.44484 16.4519 3.62844 16.3894 3.78469C16.3659 3.83938 16.3425 3.89406 16.3191 3.94875C16.3034 3.99563 16.2839 4.04641 16.2605 4.10109C16.2214 4.21828 16.1706 4.33156 16.1081 4.44094C16.0534 4.5425 16.0027 4.65188 15.9558 4.76906C15.8855 4.92531 15.8112 5.08547 15.7331 5.24953C15.6628 5.40578 15.5925 5.56984 15.5222 5.74172C15.4441 5.89797 15.3816 6.03469 15.3347 6.15188C15.2956 6.26125 15.2527 6.37453 15.2058 6.49172C15.1589 6.60891 15.1159 6.72609 15.0769 6.84328C15.0456 6.95266 15.0183 7.05422 14.9948 7.14797C14.9245 7.27297 14.8659 7.36672 14.8191 7.42922C14.8034 7.56984 14.7878 7.71047 14.7722 7.85109C14.7566 7.99172 14.7487 8.13625 14.7487 8.28469C14.7487 8.355 14.7527 8.42531 14.7605 8.49563C14.7761 8.55813 14.7878 8.62453 14.7956 8.69484C14.8034 8.79641 14.8034 8.89797 14.7956 8.99953C14.7956 9.09328 14.7995 9.19094 14.8073 9.2925C14.8152 9.48781 14.823 9.68313 14.8308 9.87844C14.8464 10.0659 14.8581 10.2613 14.8659 10.4644C14.8737 10.605 14.8659 10.7261 14.8425 10.8277C14.8269 10.9214 14.823 11.0191 14.8308 11.1206C14.8073 11.1363 14.78 11.148 14.7487 11.1558C14.7253 11.1636 14.7019 11.1753 14.6784 11.1909C14.5925 11.1909 14.5339 11.187 14.5027 11.1792C14.4792 11.1792 14.4558 11.187 14.4323 11.2027C14.362 11.1558 14.323 11.1323 14.3152 11.1323C14.3073 11.1402 14.2995 11.1441 14.2917 11.1441C14.198 11.1128 14.1472 11.0894 14.1394 11.0738C14.1316 11.0581 14.1159 11.0425 14.0925 11.0269C14.0066 11.0269 13.9362 11.0386 13.8816 11.062C13.8581 11.0464 13.8386 11.0308 13.823 11.0152C13.8073 10.9995 13.7878 10.9839 13.7644 10.9683C13.6941 10.9605 13.6355 10.9527 13.5886 10.9448C13.5417 10.9292 13.5027 10.9136 13.4714 10.898C13.448 10.8355 13.4206 10.7808 13.3894 10.7339C13.3659 10.687 13.3542 10.6245 13.3542 10.5464C13.3542 10.4839 13.362 10.4253 13.3777 10.3706C13.3933 10.3159 13.405 10.2573 13.4128 10.1948C13.4128 10.1558 13.4089 10.1206 13.4011 10.0894C13.4011 10.0581 13.4011 10.023 13.4011 9.98391C13.4011 9.94484 13.4089 9.89406 13.4245 9.83156C13.4011 9.65188 13.3894 9.46438 13.3894 9.26906C13.3972 9.06594 13.4011 8.87453 13.4011 8.69484C13.4011 8.51516 13.3855 8.34719 13.3542 8.19094C13.362 8.08938 13.362 8.01906 13.3542 7.98C13.3464 7.93313 13.3425 7.88625 13.3425 7.83938C13.3425 7.80031 13.3464 7.76125 13.3542 7.72219C13.362 7.67531 13.3659 7.63234 13.3659 7.59328C13.3659 7.58547 13.3581 7.54641 13.3425 7.47609C13.3347 7.39797 13.323 7.31984 13.3073 7.24172C13.2917 7.15578 13.2761 7.07766 13.2605 7.00734C13.2448 6.92922 13.237 6.88234 13.237 6.86672C13.1589 6.72609 13.1003 6.59328 13.0612 6.46828C13.0222 6.34328 12.9792 6.23781 12.9323 6.15188C12.9011 6.08938 12.8698 6.02688 12.8386 5.96438C12.8073 5.90188 12.78 5.83547 12.7566 5.76516C12.7409 5.72609 12.7253 5.68313 12.7097 5.63625C12.7019 5.58938 12.6902 5.54641 12.6745 5.50734C12.6433 5.44484 12.612 5.37844 12.5808 5.30813C12.5573 5.23 12.5261 5.1675 12.487 5.12063C12.4558 5.05031 12.4245 4.98781 12.3933 4.93313C12.3698 4.87063 12.3581 4.81203 12.3581 4.75734C12.3347 4.66359 12.2956 4.58156 12.2409 4.51125C12.1941 4.43313 12.1511 4.355 12.112 4.27688C12.0886 4.23 12.0691 4.18703 12.0534 4.14797C12.0456 4.10891 12.0339 4.06984 12.0183 4.03078C12.0027 3.99953 11.9792 3.96047 11.948 3.91359C11.9245 3.86672 11.8972 3.83156 11.8659 3.80813C11.8503 3.73781 11.823 3.67531 11.7839 3.62063C11.7448 3.56594 11.7175 3.50344 11.7019 3.43313C11.6628 3.37844 11.6198 3.32375 11.573 3.26906C11.5417 3.15188 11.4987 3.04641 11.4441 2.95266C11.3894 2.85109 11.3386 2.74563 11.2917 2.63625C11.323 2.47219 11.4128 2.37063 11.5612 2.33156C11.6394 2.23781 11.6862 2.18703 11.7019 2.17922C11.7175 2.17141 11.7527 2.1675 11.8073 2.1675C11.8542 2.12844 11.9011 2.09719 11.948 2.07375C11.9948 2.0425 12.0495 2.03469 12.112 2.05031C12.1198 2.01906 12.1394 1.99172 12.1706 1.96828C12.2097 1.94484 12.2448 1.93313 12.2761 1.93313C12.323 1.93313 12.362 1.95656 12.3933 2.00344C12.4323 2.05031 12.4714 2.08547 12.5105 2.10891C12.573 2.21828 12.6355 2.32375 12.698 2.42531C12.7683 2.52688 12.8269 2.63234 12.8737 2.74172C12.9284 2.85109 12.9753 2.96047 13.0144 3.06984C13.0612 3.17922 13.1277 3.28469 13.2136 3.38625C13.2527 3.5425 13.3112 3.69094 13.3894 3.83156C13.4753 3.96438 13.5456 4.10891 13.6003 4.26516C13.6394 4.35891 13.6823 4.45266 13.7292 4.54641C13.7839 4.63234 13.8308 4.72609 13.8698 4.82766C13.8933 4.87453 13.9128 4.92141 13.9284 4.96828C13.9441 5.01516 13.9597 5.06203 13.9753 5.10891C13.9909 5.14797 14.0066 5.19875 14.0222 5.26125C14.0378 5.32375 14.0573 5.37453 14.0808 5.41359C14.1355 5.35891 14.1823 5.28859 14.2214 5.20266C14.2761 5.09328 14.3308 4.99172 14.3855 4.89797C14.448 4.79641 14.5027 4.69094 14.5495 4.58156C14.612 4.48 14.655 4.37453 14.6784 4.26516C14.7097 4.15578 14.7448 4.04641 14.7839 3.93703C14.7995 3.89797 14.8152 3.85891 14.8308 3.81984C14.8542 3.78078 14.8737 3.73781 14.8894 3.69094C14.9128 3.64406 14.9323 3.59719 14.948 3.55031C14.9636 3.50344 14.9792 3.45656 14.9948 3.40969C15.0495 3.26125 15.1081 3.11672 15.1706 2.97609C15.2409 2.82766 15.3112 2.67922 15.3816 2.53078C15.3894 2.50734 15.405 2.47219 15.4284 2.42531C15.4597 2.37844 15.4909 2.33156 15.5222 2.28469C15.5612 2.23 15.5964 2.18313 15.6277 2.14406C15.6589 2.105 15.6862 2.07766 15.7097 2.06203C15.7253 2.04641 15.7487 2.03859 15.78 2.03859C15.8191 2.03078 15.8503 2.02297 15.8737 2.01516C15.9441 2.01516 15.9948 2.03469 16.0261 2.07375C16.1198 2.11281 16.1902 2.14016 16.237 2.15578C16.2839 2.17141 16.3191 2.20656 16.3425 2.26125C16.4597 2.33938 16.5456 2.38625 16.6003 2.40188C16.6628 2.40969 16.7097 2.44094 16.7409 2.49563C16.8269 2.55031 16.8777 2.58938 16.8933 2.61281C16.9089 2.63625 16.9245 2.65969 16.9402 2.68313ZM20.039 10.98H16.943V10.356L17.951 10.128V3.276L16.943 3.036V2.412H20.039V3.036L19.031 3.276V10.128L20.039 10.356V10.98ZM18.515 2.38419e-07C18.675 2.38419e-07 18.815 0.0560002 18.935 0.168C19.063 0.272 19.127 0.44 19.127 0.672C19.127 0.896 19.063 1.064 18.935 1.176C18.815 1.288 18.675 1.344 18.515 1.344C18.339 1.344 18.191 1.288 18.071 1.176C17.951 1.064 17.891 0.896 17.891 0.672C17.891 0.44 17.951 0.272 18.071 0.168C18.191 0.0560002 18.339 2.38419e-07 18.515 2.38419e-07ZM29.0287 10.9448C28.9897 10.9839 28.9467 11.0073 28.8998 11.0152C28.853 11.023 28.8061 11.0269 28.7592 11.0269C28.642 11.0816 28.517 11.1089 28.3842 11.1089C28.2983 11.062 28.2514 11.0464 28.2436 11.062C28.2358 11.0777 28.2202 11.0933 28.1967 11.1089C28.0795 11.1636 27.9741 11.1909 27.8803 11.1909C27.7866 11.1988 27.7084 11.2222 27.6459 11.2613C27.5834 11.2144 27.5483 11.1441 27.5405 11.0503C27.5405 10.9644 27.5327 10.8902 27.517 10.8277C27.478 10.773 27.4506 10.7066 27.435 10.6284C27.4194 10.5425 27.4077 10.4566 27.3998 10.3706C27.392 10.2847 27.3803 10.2027 27.3647 10.1245C27.3569 10.0386 27.3373 9.96438 27.3061 9.90188C27.2983 9.86281 27.2944 9.82766 27.2944 9.79641C27.3022 9.76516 27.2983 9.73 27.2827 9.69094C27.2905 9.55813 27.2866 9.45266 27.2709 9.37453C27.2553 9.29641 27.2397 9.21438 27.2241 9.12844C27.2162 9.08156 27.2123 9.03078 27.2123 8.97609C27.2123 8.91359 27.1889 8.86672 27.142 8.83547C27.1655 8.72609 27.1694 8.64406 27.1537 8.58938C27.1381 8.53469 27.1264 8.48391 27.1186 8.43703C27.1108 8.37453 27.1069 8.30813 27.1069 8.23781C27.1069 8.15969 27.0991 8.08938 27.0834 8.02688C27.0366 7.65188 26.9858 7.27688 26.9311 6.90188C26.8764 6.52688 26.8256 6.15188 26.7787 5.77688C26.7319 5.81594 26.6967 5.87453 26.6733 5.95266C26.6577 6.03078 26.642 6.10109 26.6264 6.16359C26.5795 6.30422 26.5366 6.44875 26.4975 6.59719C26.4584 6.74563 26.4194 6.89016 26.3803 7.03078C26.3647 7.09328 26.3491 7.1675 26.3334 7.25344C26.3256 7.33156 26.31 7.40188 26.2866 7.46438C26.2084 7.69094 26.1381 7.88625 26.0756 8.05031C26.0209 8.21438 25.9662 8.38234 25.9116 8.55422C25.8959 8.64797 25.8803 8.73781 25.8647 8.82375C25.8491 8.90969 25.8334 8.99563 25.8178 9.08156C25.81 9.12844 25.7983 9.19484 25.7827 9.28078C25.767 9.36672 25.7514 9.42922 25.7358 9.46828C25.7202 9.50734 25.7045 9.53469 25.6889 9.55031C25.6811 9.56594 25.6811 9.59328 25.6889 9.63234C25.6108 9.74953 25.5561 9.87844 25.5248 10.0191C25.5014 10.1597 25.4545 10.2964 25.3842 10.4292C25.3842 10.523 25.3491 10.605 25.2787 10.6753C25.2397 10.6831 25.2006 10.6909 25.1616 10.6988C25.1303 10.7066 25.0952 10.7222 25.0561 10.7456C25.017 10.73 24.9702 10.7222 24.9155 10.7222C24.8686 10.7144 24.8217 10.7105 24.7748 10.7105C24.7358 10.7027 24.7006 10.6909 24.6694 10.6753C24.6381 10.6519 24.603 10.6363 24.5639 10.6284C24.5248 10.5816 24.4819 10.5425 24.435 10.5113C24.3881 10.4722 24.3412 10.4331 24.2944 10.3941C24.2475 10.2769 24.2045 10.1988 24.1655 10.1597C24.142 10.0738 24.1108 9.99563 24.0717 9.92531C24.0327 9.84719 24.0053 9.76125 23.9897 9.6675C23.9662 9.58156 23.935 9.50344 23.8959 9.43313C23.8647 9.355 23.8295 9.27297 23.7905 9.18703C23.7748 9.13234 23.7553 9.08156 23.7319 9.03469C23.7162 8.98 23.6967 8.92531 23.6733 8.87063C23.6655 8.80813 23.642 8.73 23.603 8.63625C23.5717 8.5425 23.5483 8.46047 23.5327 8.39016C23.5327 8.38234 23.517 8.34328 23.4858 8.27297C23.4623 8.19484 23.435 8.11281 23.4037 8.02688C23.3803 7.94094 23.353 7.86281 23.3217 7.7925C23.2983 7.72219 23.2827 7.68313 23.2748 7.67531C23.2592 7.63625 23.2436 7.60109 23.228 7.56984C23.2202 7.53078 23.2084 7.48781 23.1928 7.44094C23.1616 7.33938 23.1225 7.23781 23.0756 7.13625C23.0287 7.02688 22.9819 6.92531 22.935 6.83156C22.8959 6.75344 22.8686 6.67922 22.853 6.60891C22.8373 6.53078 22.8178 6.45656 22.7944 6.38625C22.7787 6.34719 22.7631 6.31203 22.7475 6.28078C22.7397 6.24953 22.728 6.21438 22.7123 6.17531C22.6967 6.12844 22.6811 6.08156 22.6655 6.03469C22.6498 5.98 22.6342 5.92531 22.6186 5.87063C22.5795 5.88625 22.56 5.92141 22.56 5.97609C22.5678 6.02297 22.5678 6.06594 22.56 6.105C22.5444 6.19094 22.5366 6.27688 22.5366 6.36281C22.5366 6.44094 22.5327 6.52297 22.5248 6.60891C22.5092 6.70266 22.4936 6.7925 22.478 6.87844C22.4623 6.96438 22.4506 7.05031 22.4428 7.13625C22.4428 7.34719 22.4311 7.55813 22.4077 7.76906C22.392 7.95656 22.3725 8.14797 22.3491 8.34328C22.3256 8.53078 22.31 8.72609 22.3022 8.92922C22.3022 9.07766 22.2866 9.22609 22.2553 9.37453C22.2241 9.51516 22.2162 9.66359 22.2319 9.81984C22.2162 9.85109 22.2084 9.87453 22.2084 9.89016C22.2084 9.90578 22.2084 9.92922 22.2084 9.96047C22.2084 9.99953 22.2045 10.0425 22.1967 10.0894C22.1967 10.1363 22.1967 10.1792 22.1967 10.2183C22.1967 10.2886 22.2045 10.3355 22.2202 10.3589C22.1967 10.4292 22.185 10.5073 22.185 10.5933C22.185 10.6714 22.185 10.7495 22.185 10.8277C22.1694 10.8589 22.1577 10.8902 22.1498 10.9214C22.1498 10.9527 22.1381 10.9839 22.1147 11.0152C22.1225 11.148 22.0834 11.2144 21.9975 11.2144C21.9741 11.2144 21.9467 11.2066 21.9155 11.1909C21.892 11.1831 21.8725 11.1675 21.8569 11.1441C21.7709 11.1519 21.7202 11.1323 21.7045 11.0855C21.6967 11.0386 21.6733 11.0191 21.6342 11.0269C21.5405 11.0659 21.4858 11.0777 21.4702 11.062C21.4623 11.0464 21.4389 11.0425 21.3998 11.0503C21.3373 10.9878 21.2944 10.9605 21.2709 10.9683C21.2553 10.9761 21.2397 10.98 21.2241 10.98C21.1537 10.9566 21.1147 10.9527 21.1069 10.9683C21.0991 10.9761 21.0834 10.98 21.06 10.98C21.0209 10.9409 20.9662 10.9214 20.8959 10.9214C20.8334 10.9214 20.7787 10.9175 20.7319 10.9097C20.7241 10.8784 20.7162 10.8511 20.7084 10.8277C20.7084 10.7964 20.7084 10.7613 20.7084 10.7222C20.7084 10.6753 20.7084 10.6323 20.7084 10.5933C20.7162 10.5464 20.7202 10.4995 20.7202 10.4527C20.7202 10.4136 20.7162 10.3745 20.7084 10.3355C20.7084 10.2886 20.7084 10.2378 20.7084 10.1831C20.7084 10.1284 20.7123 10.0777 20.7202 10.0308C20.728 9.97609 20.7319 9.9175 20.7319 9.855C20.7319 9.83156 20.728 9.81203 20.7202 9.79641C20.7123 9.77297 20.7084 9.74563 20.7084 9.71438C20.7553 9.61281 20.7748 9.53469 20.767 9.48C20.767 9.4175 20.7709 9.35891 20.7787 9.30422C20.7944 9.17141 20.8061 9.0425 20.8139 8.9175C20.8295 8.78469 20.8452 8.65188 20.8608 8.51906C20.8608 8.30031 20.8647 8.12063 20.8725 7.98C20.8881 7.83156 20.9077 7.68313 20.9311 7.53469C20.9467 7.46438 20.9584 7.39797 20.9662 7.33547C20.9819 7.27297 20.9975 7.20656 21.0131 7.13625C21.0287 7.01906 21.0366 6.89797 21.0366 6.77297C21.0444 6.64016 21.0561 6.51125 21.0717 6.38625C21.0873 6.19094 21.1069 5.99953 21.1303 5.81203C21.1537 5.61672 21.1733 5.42531 21.1889 5.23781C21.2045 5.08938 21.2202 4.94484 21.2358 4.80422C21.2592 4.65578 21.2709 4.51516 21.2709 4.38234C21.2709 4.31203 21.2787 4.22219 21.2944 4.11281C21.3178 4.00344 21.3334 3.90969 21.3412 3.83156C21.3569 3.64406 21.3686 3.46047 21.3764 3.28078C21.392 3.10109 21.3998 2.92141 21.3998 2.74172V2.61281C21.3998 2.59719 21.4077 2.58156 21.4233 2.56594C21.4389 2.55031 21.4467 2.52297 21.4467 2.48391C21.4467 2.41359 21.4623 2.36672 21.4936 2.34328C21.5327 2.31203 21.5639 2.26516 21.5873 2.20266C21.6264 2.20266 21.6694 2.20656 21.7162 2.21438C21.7709 2.22219 21.81 2.24563 21.8334 2.28469C21.8881 2.26906 21.9428 2.26125 21.9975 2.26125C22.0522 2.26125 22.0991 2.24172 22.1381 2.20266C22.185 2.20266 22.2202 2.21438 22.2436 2.23781C22.267 2.26125 22.2983 2.28078 22.3373 2.29641C22.3686 2.28078 22.3998 2.26906 22.4311 2.26125C22.4623 2.24563 22.4936 2.23 22.5248 2.21438C22.5483 2.23 22.5639 2.24953 22.5717 2.27297C22.5873 2.28859 22.6069 2.30031 22.6303 2.30813C22.7475 2.27688 22.8256 2.27297 22.8647 2.29641C22.8803 2.32766 22.8881 2.35891 22.8881 2.39016C22.8959 2.42141 22.9037 2.45266 22.9116 2.48391C22.9897 2.56203 23.0405 2.65188 23.0639 2.75344C23.0873 2.84719 23.1303 2.93313 23.1928 3.01125C23.2084 3.05813 23.2241 3.105 23.2397 3.15188C23.2631 3.19875 23.2827 3.25344 23.2983 3.31594L23.3334 3.45656C23.3647 3.53469 23.4037 3.62844 23.4506 3.73781C23.4897 3.88625 23.5248 4.03859 23.5561 4.19484C23.5873 4.35109 23.6381 4.49563 23.7084 4.62844C23.7162 4.67531 23.728 4.73391 23.7436 4.80422C23.767 4.86672 23.7866 4.92141 23.8022 4.96828C23.8569 5.10109 23.9116 5.23391 23.9662 5.36672C24.0287 5.49172 24.0834 5.62844 24.1303 5.77688C24.1772 5.92531 24.2162 6.07766 24.2475 6.23391C24.2866 6.39016 24.3334 6.5425 24.3881 6.69094C24.435 6.83156 24.4702 6.93313 24.4936 6.99563C24.517 7.05813 24.5483 7.12063 24.5873 7.18313C24.5873 7.20656 24.5912 7.24563 24.5991 7.30031C24.6147 7.355 24.6342 7.41359 24.6577 7.47609C24.6811 7.53078 24.7045 7.58547 24.728 7.64016C24.7514 7.68703 24.7748 7.71438 24.7983 7.72219C24.8217 7.70656 24.8334 7.68313 24.8334 7.65188C24.8412 7.62063 24.8569 7.59328 24.8803 7.56984C24.8881 7.48391 24.8998 7.37844 24.9155 7.25344C24.9389 7.12844 24.9702 7.02688 25.0092 6.94875C25.0092 6.90969 25.017 6.83938 25.0327 6.73781C25.0561 6.62844 25.0834 6.51516 25.1147 6.39797C25.1459 6.27297 25.1733 6.15969 25.1967 6.05813C25.228 5.95656 25.2553 5.89406 25.2787 5.87063C25.2944 5.76906 25.3061 5.70656 25.3139 5.68313C25.3295 5.65969 25.3452 5.64016 25.3608 5.62453C25.3686 5.56203 25.3842 5.50344 25.4077 5.44875C25.4311 5.39406 25.4467 5.33547 25.4545 5.27297C25.4702 5.14016 25.4897 5.03078 25.5131 4.94484C25.5366 4.85891 25.5678 4.75344 25.6069 4.62844C25.6381 4.51906 25.6655 4.40969 25.6889 4.30031C25.7202 4.18313 25.7553 4.06984 25.7944 3.96047C25.8881 3.66359 25.9702 3.40188 26.0405 3.17531C26.1186 2.94094 26.2123 2.71438 26.3217 2.49563C26.3452 2.42531 26.3647 2.38234 26.3803 2.36672C26.3959 2.35109 26.4116 2.33547 26.4272 2.31984C26.4897 2.29641 26.5522 2.28469 26.6147 2.28469C26.685 2.28469 26.7553 2.28859 26.8256 2.29641C26.9037 2.26516 26.9623 2.23 27.0014 2.19094C27.0327 2.23 27.0795 2.24953 27.142 2.24953C27.2202 2.24953 27.2748 2.22609 27.3061 2.17922C27.3373 2.19484 27.3608 2.19875 27.3764 2.19094C27.3998 2.18313 27.4311 2.18703 27.4702 2.20266C27.4858 2.18703 27.5053 2.17141 27.5287 2.15578C27.5522 2.13234 27.5756 2.12063 27.5991 2.12063C27.6616 2.19875 27.7084 2.26125 27.7397 2.30813C27.7787 2.34719 27.8061 2.39406 27.8217 2.44875C27.8452 2.51906 27.8569 2.59719 27.8569 2.68313C27.8647 2.76125 27.8881 2.83547 27.9272 2.90578C27.9194 3.00734 27.9233 3.16359 27.9389 3.37453C27.9623 3.57766 27.9858 3.79641 28.0092 4.03078C28.0405 4.25734 28.0717 4.46828 28.103 4.66359C28.1342 4.85891 28.1616 4.98 28.185 5.02688C28.1772 5.12844 28.1811 5.21438 28.1967 5.28469C28.2123 5.355 28.2202 5.42531 28.2202 5.49563C28.2202 5.51906 28.2241 5.56984 28.2319 5.64797C28.2397 5.71828 28.2475 5.79641 28.2553 5.88234C28.2631 5.96047 28.2709 6.03859 28.2787 6.11672C28.2944 6.18703 28.3061 6.23781 28.3139 6.26906C28.3139 6.40969 28.3373 6.51906 28.3842 6.59719C28.4233 6.7925 28.4545 6.98781 28.478 7.18313C28.5092 7.37844 28.5366 7.57766 28.56 7.78078C28.5756 7.88234 28.5834 7.98 28.5834 8.07375C28.5912 8.1675 28.603 8.26516 28.6186 8.36672C28.6264 8.40578 28.6342 8.44484 28.642 8.48391C28.6577 8.52297 28.6694 8.56203 28.6772 8.60109C28.6928 8.67922 28.7045 8.75344 28.7123 8.82375C28.7202 8.89406 28.7319 8.96438 28.7475 9.03469C28.7553 9.07375 28.767 9.11672 28.7827 9.16359C28.7983 9.20266 28.7983 9.24563 28.7827 9.2925C28.7983 9.34719 28.8022 9.40578 28.7944 9.46828C28.7944 9.53078 28.81 9.58547 28.8412 9.63234C28.8412 9.79641 28.853 9.94094 28.8764 10.0659C28.8842 10.1597 28.9077 10.2534 28.9467 10.3472C28.9623 10.4409 28.9741 10.5386 28.9819 10.6402C28.9975 10.7417 29.0131 10.8433 29.0287 10.9448ZM34.5164 2.60109C34.5008 2.63234 34.493 2.66359 34.493 2.69484C34.5008 2.72609 34.5047 2.76125 34.5047 2.80031C34.4891 2.89406 34.4891 2.94094 34.5047 2.94094C34.5203 2.94094 34.5281 2.94875 34.5281 2.96438L34.4461 3.08156C34.4461 3.12844 34.4344 3.17141 34.4109 3.21047C34.3953 3.24953 34.3914 3.29641 34.3992 3.35109C34.3758 3.39016 34.3523 3.42922 34.3289 3.46828C34.3133 3.50734 34.2859 3.54641 34.2469 3.58547H34.0945C34.0086 3.58547 33.9148 3.59328 33.8133 3.60891C33.7195 3.61672 33.6258 3.62063 33.532 3.62063C33.5164 3.62063 33.4969 3.62063 33.4734 3.62063C33.45 3.61281 33.4266 3.60891 33.4031 3.60891C33.3875 3.60891 33.368 3.61281 33.3445 3.62063C33.3211 3.62063 33.2938 3.62063 33.2625 3.62063C33.1453 3.62063 33.0281 3.61672 32.9109 3.60891C32.8016 3.59328 32.6844 3.58547 32.5594 3.58547C32.5281 3.58547 32.4969 3.58547 32.4656 3.58547C32.4344 3.58547 32.3992 3.58938 32.3602 3.59719C32.3523 3.73 32.3445 3.86672 32.3367 4.00734C32.3367 4.14016 32.3367 4.27688 32.3367 4.4175C32.3367 4.45656 32.3328 4.49953 32.325 4.54641C32.3172 4.58547 32.3133 4.62453 32.3133 4.66359C32.3055 4.76516 32.2977 4.86281 32.2898 4.95656C32.2898 5.05031 32.2898 5.14797 32.2898 5.24953C32.2898 5.46828 32.2898 5.68703 32.2898 5.90578C32.2977 6.12453 32.3055 6.34719 32.3133 6.57375C32.3211 6.69094 32.3289 6.80422 32.3367 6.91359C32.3445 7.02297 32.3484 7.13625 32.3484 7.25344C32.3484 7.51906 32.3445 7.78469 32.3367 8.05031C32.3289 8.30813 32.325 8.56984 32.325 8.83547C32.325 8.92141 32.3211 9.00344 32.3133 9.08156C32.3055 9.15188 32.3016 9.23 32.3016 9.31594C32.3016 9.49563 32.3055 9.67531 32.3133 9.855C32.3211 10.0347 32.325 10.2144 32.325 10.3941C32.325 10.48 32.3211 10.5659 32.3133 10.6519C32.3133 10.7378 32.3133 10.8238 32.3133 10.9097C32.2742 10.9722 32.2469 11.0269 32.2313 11.0738C32.2156 11.1206 32.1688 11.1441 32.0906 11.1441C32.0359 11.1284 32.0086 11.1089 32.0086 11.0855C32.0164 11.0698 32.0125 11.0542 31.9969 11.0386C31.9266 11.0308 31.8719 11.0347 31.8328 11.0503C31.8016 11.0738 31.7625 11.0933 31.7156 11.1089C31.6922 11.1011 31.6648 11.0972 31.6336 11.0972C31.6102 11.0972 31.5867 11.0972 31.5633 11.0972C31.5477 11.0972 31.532 11.1011 31.5164 11.1089C31.5008 11.1245 31.4656 11.1323 31.4109 11.1323C31.3641 11.1402 31.3367 11.1323 31.3289 11.1089C31.3211 11.0855 31.2977 11.0738 31.2586 11.0738C31.2195 11.0972 31.1727 11.1128 31.118 11.1206C31.0711 11.1363 31.0242 11.1441 30.9773 11.1441C30.9305 11.1128 30.907 11.0816 30.907 11.0503C30.9148 11.0269 30.9109 10.9995 30.8953 10.9683C30.8875 10.9527 30.8719 10.9331 30.8484 10.9097C30.8328 10.8784 30.8172 10.855 30.8016 10.8394C30.8172 10.73 30.8289 10.6323 30.8367 10.5464C30.8445 10.4605 30.8484 10.3667 30.8484 10.2652C30.8484 10.062 30.8406 9.86281 30.825 9.6675C30.8094 9.47219 30.8016 9.27297 30.8016 9.06984C30.8016 9.00734 30.8094 8.94094 30.825 8.87063C30.8406 8.80031 30.8484 8.72609 30.8484 8.64797C30.8328 8.58547 30.8289 8.55031 30.8367 8.5425C30.8445 8.52688 30.8484 8.51125 30.8484 8.49563C30.8484 8.44875 30.8445 8.40188 30.8367 8.355C30.8367 8.30813 30.8367 8.26125 30.8367 8.21438C30.8367 8.12063 30.8367 8.02688 30.8367 7.93313C30.8445 7.83938 30.8484 7.74563 30.8484 7.65188C30.8484 7.61281 30.8445 7.57375 30.8367 7.53469C30.8367 7.48781 30.8367 7.44484 30.8367 7.40578C30.8289 7.33547 30.825 7.26125 30.825 7.18313C30.8328 7.105 30.8367 7.02688 30.8367 6.94875C30.8367 6.57375 30.8289 6.20266 30.8133 5.83547C30.8055 5.46828 30.8016 5.09719 30.8016 4.72219C30.8016 4.5425 30.8094 4.35891 30.825 4.17141C30.8484 3.98391 30.8602 3.79641 30.8602 3.60891C30.8602 3.58547 30.8523 3.55422 30.8367 3.51516C30.8211 3.47609 30.8055 3.44875 30.7898 3.43313C30.7508 3.43313 30.7117 3.43313 30.6727 3.43313C30.6414 3.42531 30.6063 3.42141 30.5672 3.42141C30.4813 3.42141 30.3992 3.43313 30.3211 3.45656C30.1727 3.46438 30.0281 3.47609 29.8875 3.49172C29.7547 3.49953 29.618 3.50734 29.4773 3.51516C29.3836 3.50734 29.325 3.50734 29.3016 3.51516C29.2859 3.51516 29.2664 3.51516 29.243 3.51516C29.1805 3.51516 29.1336 3.49953 29.1023 3.46828V3.31594C29.0555 3.22219 29.0359 3.17141 29.0438 3.16359C29.0516 3.15578 29.0555 3.14406 29.0555 3.12844C29.0555 3.105 29.0359 3.08156 28.9969 3.05813C28.95 3.02688 28.9266 2.98 28.9266 2.9175C28.9188 2.855 28.9031 2.80813 28.8797 2.77688C28.8563 2.74563 28.8445 2.71438 28.8445 2.68313C28.8445 2.62844 28.8563 2.56594 28.8797 2.49563C28.95 2.45656 29.0164 2.42922 29.0789 2.41359C29.1492 2.39797 29.2273 2.37844 29.3133 2.355C29.3602 2.33938 29.4031 2.32375 29.4422 2.30813C29.4813 2.2925 29.5242 2.28078 29.5711 2.27297C29.6258 2.26516 29.6805 2.26125 29.7352 2.26125C29.7898 2.26125 29.8445 2.25734 29.8992 2.24953C30.0164 2.22609 30.1375 2.20656 30.2625 2.19094C30.3953 2.17531 30.5203 2.1675 30.6375 2.1675C30.7469 2.1675 30.8563 2.18313 30.9656 2.21438C31.075 2.23781 31.1727 2.24953 31.2586 2.24953C31.3836 2.24953 31.5008 2.25734 31.6102 2.27297C31.7273 2.28859 31.8484 2.29641 31.9734 2.29641C31.9891 2.29641 32.0125 2.30422 32.0438 2.31984C32.0828 2.32766 32.1258 2.33156 32.1727 2.33156H33.3094C33.3719 2.34719 33.4148 2.35109 33.4383 2.34328C33.4695 2.33547 33.4969 2.33156 33.5203 2.33156C33.5828 2.33156 33.6414 2.33547 33.6961 2.34328C33.7508 2.35109 33.8094 2.355 33.8719 2.355C33.9266 2.355 33.9695 2.35109 34.0008 2.34328C34.0633 2.35109 34.1219 2.37063 34.1766 2.40188C34.2313 2.42531 34.2938 2.43703 34.3641 2.43703C34.3953 2.46047 34.4188 2.49172 34.4344 2.53078C34.45 2.56203 34.4773 2.58547 34.5164 2.60109ZM40.4025 6.32766C40.3869 6.35891 40.3713 6.39016 40.3556 6.42141C40.34 6.44484 40.3283 6.47219 40.3205 6.50344C40.3517 6.53469 40.3791 6.56984 40.4025 6.60891C40.4338 6.64016 40.4494 6.67531 40.4494 6.71438C40.4494 6.74563 40.4416 6.77688 40.4259 6.80813C40.4181 6.83156 40.4181 6.855 40.4259 6.87844C40.3947 6.93313 40.3595 6.98391 40.3205 7.03078C40.2892 7.07766 40.2658 7.12844 40.2502 7.18313C40.2189 7.21438 40.1916 7.24563 40.1681 7.27688C40.1525 7.30813 40.1369 7.33938 40.1213 7.37063C40.0822 7.38625 40.0548 7.41359 40.0392 7.45266C40.0314 7.48391 40.0119 7.51125 39.9806 7.53469C39.9728 7.56594 39.9338 7.64016 39.8634 7.75734C39.7931 7.87453 39.715 7.99953 39.6291 8.13234C39.5431 8.26516 39.4611 8.39406 39.383 8.51906C39.3048 8.64406 39.2502 8.72609 39.2189 8.76516C39.2033 8.80422 39.1838 8.83547 39.1603 8.85891C39.1447 8.88234 39.1252 8.90969 39.1017 8.94094C39.0861 8.96438 39.0744 8.99172 39.0666 9.02297C39.0588 9.04641 39.047 9.06594 39.0314 9.08156C39.0158 9.11281 38.9963 9.14016 38.9728 9.16359C38.9572 9.18703 38.9416 9.21828 38.9259 9.25734C38.8478 9.35891 38.7697 9.48 38.6916 9.62063C38.6134 9.76125 38.5392 9.88625 38.4689 9.99563C38.4298 10.0581 38.3908 10.1206 38.3517 10.1831C38.3205 10.2456 38.2853 10.3081 38.2463 10.3706C38.2072 10.4331 38.1681 10.4917 38.1291 10.5464C38.09 10.6011 38.0509 10.6597 38.0119 10.7222C37.9494 10.7691 37.8947 10.8277 37.8478 10.898C37.8009 10.9605 37.7463 11.0152 37.6838 11.062C37.5822 11.062 37.5197 11.0152 37.4963 10.9214C37.3947 10.898 37.3439 10.898 37.3439 10.9214C37.3439 10.9448 37.3439 10.9644 37.3439 10.98C37.3127 10.9956 37.2892 11.0191 37.2736 11.0503C37.2658 11.0816 37.2463 11.105 37.215 11.1206C37.1525 11.105 37.0978 11.0777 37.0509 11.0386C37.0119 11.0073 36.9533 10.9956 36.8752 11.0034C36.8439 10.9566 36.8088 10.9175 36.7697 10.8863C36.7306 10.8472 36.6955 10.8081 36.6642 10.7691C36.6486 10.7222 36.6252 10.6831 36.5939 10.6519C36.5705 10.6206 36.547 10.5894 36.5236 10.5581C36.5002 10.5191 36.4767 10.4839 36.4533 10.4527C36.4298 10.4214 36.4064 10.3902 36.383 10.3589C36.3283 10.2886 36.2736 10.2222 36.2189 10.1597C36.172 10.0894 36.1291 10.0191 36.09 9.94875C36.0275 9.855 35.965 9.76125 35.9025 9.6675C35.8478 9.56594 35.7892 9.46828 35.7267 9.37453C35.6955 9.32766 35.6642 9.28078 35.633 9.23391C35.6017 9.18703 35.5744 9.14016 35.5509 9.09328C35.5353 9.05422 35.5119 9.00734 35.4806 8.95266C35.4572 8.89797 35.4259 8.86281 35.3869 8.84719C35.3713 8.78469 35.3439 8.73781 35.3048 8.70656C35.2658 8.67531 35.2267 8.63625 35.1877 8.58938C35.133 8.52688 35.0822 8.46047 35.0353 8.39016C34.9884 8.31203 34.9416 8.23391 34.8947 8.15578C34.7384 7.93703 34.59 7.72219 34.4494 7.51125C34.3166 7.30031 34.1838 7.08156 34.0509 6.855C34.09 6.73 34.1095 6.63625 34.1095 6.57375C34.1095 6.51125 34.1291 6.46047 34.1681 6.42141C34.1681 6.39016 34.1759 6.34328 34.1916 6.28078C34.2931 6.10891 34.3908 5.95266 34.4845 5.81203C34.5705 5.67922 34.6291 5.56984 34.6603 5.48391C34.6994 5.39797 34.7384 5.30813 34.7775 5.21438C34.8166 5.19094 34.8478 5.16359 34.8713 5.13234C34.8947 5.09328 34.9259 5.05813 34.965 5.02688C34.9806 4.94094 35.0158 4.87063 35.0705 4.81594C35.1252 4.75344 35.1603 4.67922 35.1759 4.59328C35.2463 4.53859 35.2853 4.47609 35.2931 4.40578C35.3947 4.33547 35.4572 4.24172 35.4806 4.12453C35.5431 4.06203 35.5939 3.99172 35.633 3.91359C35.6798 3.83547 35.7228 3.75344 35.7619 3.6675C35.8556 3.58938 35.9298 3.48781 35.9845 3.36281C36.0314 3.33156 36.0666 3.28859 36.09 3.23391C36.1134 3.17922 36.1447 3.13234 36.1838 3.09328C36.2463 2.99172 36.2931 2.90969 36.3244 2.84719C36.3634 2.77688 36.4025 2.70656 36.4416 2.63625C36.4963 2.63625 36.5314 2.61672 36.547 2.57766C36.5627 2.53859 36.5939 2.52297 36.6408 2.53078C36.6408 2.46047 36.6603 2.39797 36.6994 2.34328C36.715 2.33547 36.7384 2.32766 36.7697 2.31984C36.8009 2.30422 36.8166 2.28859 36.8166 2.27297C36.8009 2.17922 36.8048 2.12453 36.8283 2.10891C36.8517 2.09328 36.8713 2.07766 36.8869 2.06203C36.9728 2.07766 37.0314 2.08938 37.0627 2.09719C37.0939 2.105 37.1447 2.13234 37.215 2.17922C37.2931 2.17922 37.3478 2.19484 37.3791 2.22609C37.4103 2.25734 37.4455 2.28078 37.4845 2.29641C37.5158 2.32766 37.5392 2.35891 37.5548 2.39016C37.5783 2.42141 37.6095 2.44484 37.6486 2.46047C37.7111 2.54641 37.7775 2.64016 37.8478 2.74172C37.9181 2.84328 37.9845 2.93703 38.047 3.02297C38.133 3.14016 38.2189 3.25344 38.3048 3.36281C38.3986 3.46438 38.4845 3.57766 38.5627 3.70266C38.5861 3.74172 38.6291 3.81203 38.6916 3.91359C38.7541 4.00734 38.8244 4.10891 38.9025 4.21828C38.9806 4.32766 39.0509 4.42922 39.1134 4.52297C39.1759 4.60891 39.2189 4.65969 39.2423 4.67531C39.2658 4.71438 39.3166 4.78859 39.3947 4.89797C39.4728 5.00734 39.5548 5.12453 39.6408 5.24953C39.7345 5.36672 39.8244 5.48 39.9103 5.58938C39.9963 5.69875 40.0548 5.76906 40.0861 5.80031C40.172 5.9175 40.2345 6.01516 40.2736 6.09328C40.3205 6.16359 40.3634 6.24172 40.4025 6.32766ZM37.7189 8.53078C37.8048 8.41359 37.8713 8.30813 37.9181 8.21438C37.965 8.12063 38.0119 8.02688 38.0588 7.93313C38.1369 7.83938 38.1838 7.77297 38.1994 7.73391C38.215 7.69484 38.2345 7.65578 38.258 7.61672C38.3205 7.52297 38.383 7.42922 38.4455 7.33547C38.5158 7.24172 38.5705 7.14016 38.6095 7.03078C38.6564 6.99953 38.6916 6.96047 38.715 6.91359C38.7384 6.86672 38.7736 6.82375 38.8205 6.78469C38.7736 6.62063 38.7189 6.49563 38.6564 6.40969C38.5939 6.31594 38.5314 6.22609 38.4689 6.14016C38.4455 6.10109 38.422 6.06203 38.3986 6.02297C38.3752 5.98391 38.3517 5.94484 38.3283 5.90578C38.297 5.88234 38.2697 5.85891 38.2463 5.83547C38.2306 5.81203 38.2111 5.78859 38.1877 5.76516C38.172 5.72609 38.1486 5.67531 38.1173 5.61281C38.0861 5.57375 38.0548 5.53859 38.0236 5.50734C37.9923 5.47609 37.965 5.43703 37.9416 5.39016C37.9103 5.35891 37.8713 5.31594 37.8244 5.26125C37.7775 5.20656 37.7267 5.14797 37.672 5.08547C37.6252 5.01516 37.5822 4.95266 37.5431 4.89797C37.5041 4.83547 37.4728 4.78469 37.4494 4.74563C37.4338 4.70656 37.4181 4.67531 37.4025 4.65188C37.3947 4.62063 37.383 4.58938 37.3673 4.55813C37.3283 4.50344 37.2892 4.45656 37.2502 4.4175C37.2111 4.37063 37.172 4.31984 37.133 4.26516C37.1095 4.28078 37.0861 4.2925 37.0627 4.30031C37.047 4.30031 37.0314 4.30813 37.0158 4.32375C36.9611 4.42531 36.8986 4.51906 36.8283 4.605C36.7658 4.69094 36.7033 4.78469 36.6408 4.88625C36.5861 4.98 36.5314 5.07766 36.4767 5.17922C36.422 5.27297 36.3673 5.36672 36.3127 5.46047C36.2736 5.51516 36.2345 5.56984 36.1955 5.62453C36.1642 5.67141 36.1291 5.72609 36.09 5.78859C36.0509 5.84328 36.0158 5.90188 35.9845 5.96438C35.9611 6.01906 35.9298 6.07375 35.8908 6.12844C35.8283 6.20656 35.7775 6.27688 35.7384 6.33938C35.6994 6.40188 35.6603 6.47609 35.6213 6.56203C35.6447 6.60891 35.6798 6.67531 35.7267 6.76125C35.7814 6.83938 35.8361 6.92141 35.8908 7.00734C35.9455 7.08547 35.9923 7.15969 36.0314 7.23C36.0783 7.30031 36.1056 7.34719 36.1134 7.37063C36.1759 7.42531 36.2267 7.48781 36.2658 7.55813C36.3048 7.62063 36.3556 7.68313 36.4181 7.74563C36.4494 7.80813 36.4845 7.86281 36.5236 7.90969C36.5627 7.95656 36.6017 8.00734 36.6408 8.06203C36.6798 8.11672 36.7306 8.19875 36.7931 8.30813C36.8556 8.40969 36.9181 8.51516 36.9806 8.62453C37.0431 8.73391 37.1056 8.83547 37.1681 8.92922C37.2306 9.02297 37.2814 9.08156 37.3205 9.105C37.3986 9.01906 37.4611 8.92531 37.508 8.82375C37.5627 8.71438 37.633 8.61672 37.7189 8.53078ZM45.6089 9.57375C45.5308 9.58156 45.4839 9.57766 45.4683 9.56203C45.437 9.57766 45.4058 9.59328 45.3745 9.60891C45.3511 9.62453 45.3237 9.64406 45.2925 9.6675C45.1831 9.70656 45.0737 9.75734 44.9644 9.81984C44.8628 9.88234 44.7573 9.94094 44.648 9.99563C44.5855 10.0269 44.523 10.0542 44.4605 10.0777C44.4058 10.0933 44.3472 10.1167 44.2847 10.148C44.1909 10.1948 44.0972 10.2456 44.0034 10.3003C43.9097 10.3472 43.812 10.3902 43.7105 10.4292C43.6558 10.4448 43.6011 10.4605 43.5464 10.4761C43.4995 10.4917 43.4487 10.5073 43.3941 10.523C43.3316 10.5464 43.273 10.5738 43.2183 10.605C43.1714 10.6284 43.1206 10.6519 43.0659 10.6753C43.0269 10.6909 42.9839 10.7066 42.937 10.7222C42.898 10.73 42.855 10.7456 42.8081 10.7691C42.7691 10.7847 42.7339 10.8042 42.7027 10.8277C42.6792 10.8511 42.648 10.8706 42.6089 10.8863C42.5464 10.9097 42.48 10.9331 42.4097 10.9566C42.3472 10.98 42.2847 11.0073 42.2222 11.0386C42.1597 11.0698 42.1128 11.0972 42.0816 11.1206C42.0581 11.1519 42.0073 11.1792 41.9292 11.2027C41.8511 11.2495 41.8081 11.273 41.8003 11.273C41.7925 11.2808 41.7808 11.2847 41.7652 11.2847C41.7417 11.3003 41.7183 11.312 41.6948 11.3198C41.6792 11.3355 41.6597 11.3511 41.6362 11.3667C41.5894 11.3667 41.5425 11.3706 41.4956 11.3784C41.4487 11.3863 41.4019 11.3902 41.355 11.3902C41.3003 11.3589 41.2612 11.3277 41.2378 11.2964C41.2222 11.2652 41.2144 11.2222 41.2144 11.1675C41.1831 11.1284 41.1519 11.0855 41.1206 11.0386C41.0972 10.9917 41.0698 10.9488 41.0386 10.9097C40.9839 10.9409 40.9487 10.9409 40.9331 10.9097C40.9253 10.8706 40.9175 10.8316 40.9097 10.7925C40.9019 10.7456 40.8941 10.7027 40.8862 10.6636C40.8784 10.6167 40.8706 10.5855 40.8628 10.5698C40.8237 10.4214 40.8042 10.312 40.8042 10.2417C40.8042 10.2027 40.812 10.1792 40.8277 10.1714C40.8433 10.1558 40.8511 10.1363 40.8511 10.1128C40.8589 10.0347 40.8667 9.94484 40.8745 9.84328C40.8823 9.74172 40.8862 9.63625 40.8862 9.52688C40.8862 9.4175 40.8862 9.30813 40.8862 9.19875C40.8862 9.08938 40.8862 8.99172 40.8862 8.90578C40.8862 8.55422 40.8823 8.21438 40.8745 7.88625C40.8667 7.55031 40.8628 7.21438 40.8628 6.87844C40.8628 6.72219 40.8667 6.56594 40.8745 6.40969C40.8823 6.25344 40.8862 6.09719 40.8862 5.94094C40.8862 5.55813 40.8902 5.17922 40.898 4.80422C40.9136 4.42922 40.9214 4.05031 40.9214 3.6675C40.9214 3.51125 40.9136 3.355 40.898 3.19875C40.8823 3.03469 40.8706 2.87063 40.8628 2.70656C40.855 2.62063 40.8589 2.55422 40.8745 2.50734C40.8902 2.45266 40.8941 2.39797 40.8862 2.34328C40.9097 2.33547 40.9527 2.33156 41.0152 2.33156C41.0777 2.33156 41.1402 2.33156 41.2027 2.33156C41.273 2.32375 41.3355 2.31984 41.3902 2.31984C41.4527 2.31203 41.4917 2.30422 41.5073 2.29641C41.562 2.33547 41.6167 2.355 41.6714 2.355C41.7261 2.355 41.7769 2.33156 41.8237 2.28469C41.8628 2.30031 41.8823 2.31203 41.8823 2.31984C41.8902 2.32766 41.9136 2.33156 41.9527 2.33156C42.023 2.32375 42.0777 2.31984 42.1167 2.31984C42.1558 2.31203 42.1909 2.30813 42.2222 2.30813C42.3081 2.37063 42.3589 2.44875 42.3745 2.5425C42.398 2.62844 42.4136 2.72219 42.4214 2.82375C42.4292 2.9175 42.4331 3.01516 42.4331 3.11672C42.4409 3.21047 42.4448 3.28859 42.4448 3.35109C42.4448 3.39797 42.4487 3.44875 42.4566 3.50344C42.4644 3.55031 42.4683 3.60109 42.4683 3.65578C42.4683 3.69484 42.4644 3.73391 42.4566 3.77297C42.4566 3.81203 42.4566 3.85109 42.4566 3.89016C42.4566 4.11672 42.4566 4.34719 42.4566 4.58156C42.4644 4.81594 42.4683 5.04641 42.4683 5.27297C42.4683 5.67922 42.4605 6.08938 42.4448 6.50344C42.437 6.90969 42.4331 7.31594 42.4331 7.72219C42.4331 7.80813 42.437 7.89406 42.4448 7.98C42.4527 8.06594 42.4566 8.15188 42.4566 8.23781C42.4566 8.28469 42.4527 8.33156 42.4448 8.37844C42.4448 8.42531 42.4448 8.47219 42.4448 8.51906C42.4448 8.80813 42.4566 9.09719 42.48 9.38625C42.5112 9.37844 42.5777 9.35891 42.6792 9.32766C42.7808 9.28859 42.8862 9.24953 42.9956 9.21047C43.105 9.16359 43.2066 9.12063 43.3003 9.08156C43.3941 9.03469 43.4527 8.99953 43.4761 8.97609C43.5073 8.97609 43.5503 8.96438 43.605 8.94094C43.6597 8.9175 43.7183 8.89016 43.7808 8.85891C43.8433 8.81984 43.9019 8.78469 43.9566 8.75344C44.0191 8.72219 44.062 8.69484 44.0855 8.67141C44.0777 8.51516 44.0737 8.35891 44.0737 8.20266C44.0737 8.03859 44.0737 7.87844 44.0737 7.72219C44.0737 7.2925 44.0777 6.86281 44.0855 6.43313C44.1011 6.00344 44.1089 5.56594 44.1089 5.12063C44.1089 4.84719 44.105 4.57375 44.0972 4.30031C44.0894 4.02688 44.0855 3.75344 44.0855 3.48C44.0855 3.39406 44.0855 3.30813 44.0855 3.22219C44.0933 3.12844 44.0972 3.03859 44.0972 2.95266C44.0972 2.81984 44.0933 2.69094 44.0855 2.56594C44.0855 2.43313 44.0933 2.30031 44.1089 2.1675C44.187 2.12844 44.23 2.10891 44.2378 2.10891C44.2847 2.10891 44.3159 2.10891 44.3316 2.10891C44.355 2.10891 44.3745 2.11672 44.3902 2.13234C44.4136 2.14016 44.4331 2.14406 44.4487 2.14406C44.4722 2.13625 44.4956 2.13234 44.5191 2.13234C44.5581 2.13234 44.5972 2.14016 44.6362 2.15578C44.6753 2.17141 44.7144 2.17922 44.7534 2.17922C44.8159 2.17141 44.8472 2.17922 44.8472 2.20266C44.855 2.22609 44.8706 2.23781 44.8941 2.23781C44.9566 2.21438 44.9995 2.21438 45.023 2.23781C45.0464 2.25344 45.0894 2.27688 45.1519 2.30813C45.2144 2.33156 45.2808 2.35891 45.3511 2.39016C45.4214 2.42141 45.4839 2.45266 45.5386 2.48391C45.5933 2.50734 45.6206 2.53078 45.6206 2.55422C45.6441 2.67922 45.6519 2.81203 45.6441 2.95266C45.6362 3.09328 45.6323 3.22609 45.6323 3.35109C45.6323 3.46047 45.6362 3.56984 45.6441 3.67922C45.6519 3.78859 45.6558 3.89797 45.6558 4.00734C45.6558 4.06984 45.6558 4.13234 45.6558 4.19484C45.6558 4.25734 45.6597 4.31594 45.6675 4.37063C45.6753 4.40969 45.6792 4.44484 45.6792 4.47609C45.6792 4.49953 45.6792 4.52688 45.6792 4.55813C45.6792 4.59719 45.687 4.64797 45.7027 4.71047C45.6948 4.74953 45.6909 4.7925 45.6909 4.83938C45.6909 4.87844 45.6909 4.9175 45.6909 4.95656C45.6909 5.06594 45.6948 5.17922 45.7027 5.29641C45.7105 5.41359 45.7144 5.53078 45.7144 5.64797C45.7144 5.72609 45.7066 5.80031 45.6909 5.87063C45.6831 5.94094 45.6792 6.01125 45.6792 6.08156L45.6909 6.30422C45.6909 6.38234 45.6948 6.46047 45.7027 6.53859C45.7105 6.61672 45.7144 6.69875 45.7144 6.78469C45.7144 6.82375 45.7105 6.86281 45.7027 6.90188C45.7027 6.94094 45.6987 6.98 45.6909 7.01906C45.6831 7.05813 45.6792 7.10109 45.6792 7.14797C45.6792 7.19484 45.6792 7.23781 45.6792 7.27688C45.6792 7.38625 45.6831 7.49563 45.6909 7.605C45.6987 7.71438 45.7027 7.82375 45.7027 7.93313C45.7027 8.00344 45.6987 8.07375 45.6909 8.14406C45.6909 8.20656 45.6909 8.27297 45.6909 8.34328C45.6909 8.48391 45.6948 8.62844 45.7027 8.77688C45.7183 8.92531 45.7261 9.06984 45.7261 9.21047C45.7261 9.27297 45.7183 9.33938 45.7027 9.40969C45.687 9.48 45.6558 9.53469 45.6089 9.57375ZM51.9403 5.33156C51.87 5.48 51.7723 5.62063 51.6473 5.75344C51.5302 5.88625 51.4169 6.01125 51.3075 6.12844C51.2216 6.21438 51.1473 6.30813 51.0848 6.40969C51.0223 6.51125 50.952 6.605 50.8739 6.69094C50.8114 6.76125 50.7489 6.82766 50.6864 6.89016C50.6239 6.94484 50.5653 7.00734 50.5106 7.07766C50.4716 7.10891 50.4325 7.14016 50.3934 7.17141C50.3622 7.20266 50.3309 7.24172 50.2997 7.28859C50.4169 7.53859 50.5536 7.76516 50.7098 7.96828C50.8739 8.17141 51.0419 8.37453 51.2137 8.57766C51.2997 8.67922 51.3856 8.77688 51.4716 8.87063C51.5575 8.95656 51.6317 9.05031 51.6942 9.15188C51.7489 9.26906 51.8036 9.35891 51.8583 9.42141C51.9208 9.47609 51.9755 9.53469 52.0223 9.59719C52.0692 9.67531 52.1083 9.74563 52.1395 9.80813C52.1786 9.86281 52.2294 9.9175 52.2919 9.97219C52.2919 10.0113 52.3153 10.0503 52.3622 10.0894C52.4091 10.1206 52.4403 10.1558 52.4559 10.1948C52.4559 10.2339 52.4559 10.2652 52.4559 10.2886C52.4637 10.312 52.4677 10.3316 52.4677 10.3472C52.4442 10.4097 52.4012 10.4644 52.3387 10.5113C52.2841 10.5503 52.2333 10.5933 52.1864 10.6402C52.1083 10.6402 52.0419 10.6636 51.9872 10.7105C51.9325 10.7573 51.8583 10.7808 51.7645 10.7808C51.7255 10.812 51.6942 10.8472 51.6708 10.8863C51.6473 10.9175 51.6161 10.9488 51.577 10.98C51.5145 10.98 51.4559 10.9956 51.4012 11.0269C51.3544 11.0659 51.2997 11.0933 51.2372 11.1089C51.1591 11.062 51.0966 11.0034 51.0497 10.9331C51.0028 10.855 50.9403 10.7964 50.8622 10.7573C50.8544 10.7183 50.8387 10.687 50.8153 10.6636C50.7997 10.6323 50.7841 10.6011 50.7684 10.5698C50.6356 10.4214 50.5106 10.2652 50.3934 10.1011C50.2762 9.93703 50.1591 9.77297 50.0419 9.60891C49.9794 9.53859 49.913 9.47219 49.8427 9.40969C49.7802 9.33938 49.7177 9.26516 49.6552 9.18703C49.6161 9.14016 49.577 9.08547 49.538 9.02297C49.4989 8.96047 49.4559 8.90188 49.4091 8.84719C49.3544 8.80031 49.3075 8.74563 49.2684 8.68313C49.2294 8.62063 49.1825 8.56984 49.1278 8.53078C49.0575 8.56984 48.995 8.62063 48.9403 8.68313C48.8856 8.74563 48.8231 8.80031 48.7528 8.84719C48.6903 8.90188 48.6278 8.95656 48.5653 9.01125C48.5106 9.06594 48.452 9.11672 48.3895 9.16359C48.3739 9.34328 48.3661 9.51906 48.3661 9.69094C48.3661 9.855 48.3661 10.0191 48.3661 10.1831C48.3661 10.3159 48.3622 10.4448 48.3544 10.5698C48.3544 10.687 48.3387 10.8081 48.3075 10.9331C48.2684 10.9409 48.2294 10.9214 48.1903 10.8745C48.1591 10.8198 48.1239 10.7886 48.0848 10.7808C48.0536 10.7886 48.0262 10.8042 48.0028 10.8277C47.9872 10.8511 47.9598 10.855 47.9208 10.8394C47.8817 10.8784 47.8231 10.9136 47.745 10.9448C47.7059 10.9448 47.663 10.9527 47.6161 10.9683C47.5692 10.9761 47.5262 10.98 47.4872 10.98C47.4247 10.98 47.3817 10.9722 47.3583 10.9566C47.2802 11.0113 47.2137 11.0386 47.1591 11.0386C47.1122 11.0464 47.0731 11.0503 47.0419 11.0503C47.0262 10.9956 47.0106 10.9448 46.995 10.898C46.9794 10.8433 46.9677 10.7847 46.9598 10.7222C46.9364 10.6909 46.9169 10.6558 46.9012 10.6167C46.8934 10.5777 46.8817 10.5386 46.8661 10.4995C46.8739 10.4761 46.8778 10.4488 46.8778 10.4175C46.8778 10.3863 46.8778 10.355 46.8778 10.3238C46.8778 10.1909 46.8739 10.062 46.8661 9.93703C46.8583 9.81203 46.8622 9.68313 46.8778 9.55031C46.8622 9.51125 46.8505 9.47219 46.8427 9.43313C46.8348 9.39406 46.8309 9.355 46.8309 9.31594C46.8309 9.2925 46.8309 9.26516 46.8309 9.23391C46.8387 9.20266 46.8505 9.17922 46.8661 9.16359C46.8427 9.06203 46.827 8.95656 46.8192 8.84719C46.8192 8.73 46.8192 8.62063 46.8192 8.51906C46.8192 8.46438 46.8231 8.40969 46.8309 8.355C46.8466 8.2925 46.8544 8.23 46.8544 8.1675C46.8544 8.03469 46.8466 7.90578 46.8309 7.78078C46.8153 7.65578 46.8075 7.53078 46.8075 7.40578C46.8153 7.31984 46.8192 7.25344 46.8192 7.20656C46.8192 7.15969 46.8231 7.11281 46.8309 7.06594C46.8387 7.01906 46.8348 6.97219 46.8192 6.92531C46.827 6.88625 46.8348 6.85891 46.8427 6.84328C46.8583 6.81984 46.8661 6.78859 46.8661 6.74953C46.8661 6.64797 46.8661 6.55031 46.8661 6.45656C46.8739 6.355 46.8778 6.24953 46.8778 6.14016C46.8778 6.06203 46.8778 5.98781 46.8778 5.9175C46.8856 5.83938 46.8895 5.75734 46.8895 5.67141C46.8895 5.60109 46.8934 5.53469 46.9012 5.47219C46.9169 5.40969 46.9286 5.34719 46.9364 5.28469C46.9442 5.21438 46.9481 5.14797 46.9481 5.08547C46.9481 5.01516 46.9481 4.94875 46.9481 4.88625C46.9481 4.72219 46.9481 4.55813 46.9481 4.39406C46.9481 4.22219 46.9403 4.05422 46.9247 3.89016C46.9169 3.85109 46.9091 3.80813 46.9012 3.76125C46.8934 3.71438 46.8895 3.6675 46.8895 3.62063C46.8739 3.47219 46.8622 3.31984 46.8544 3.16359C46.8466 3.00734 46.8309 2.85109 46.8075 2.69484C46.8231 2.67141 46.8309 2.64797 46.8309 2.62453C46.8309 2.59328 46.8309 2.56594 46.8309 2.5425C46.8309 2.50344 46.8309 2.46828 46.8309 2.43703C46.8309 2.39797 46.827 2.35891 46.8192 2.31984C46.8348 2.30422 46.8505 2.28859 46.8661 2.27297C46.8817 2.24953 46.8973 2.23 46.913 2.21438C46.9598 2.21438 47.0067 2.21828 47.0536 2.22609C47.1083 2.22609 47.1552 2.24172 47.1942 2.27297C47.2333 2.25734 47.2762 2.24172 47.3231 2.22609C47.3778 2.20266 47.4247 2.19094 47.4637 2.19094C47.5262 2.19094 47.5731 2.20656 47.6044 2.23781C47.6434 2.22219 47.663 2.20656 47.663 2.19094C47.6708 2.1675 47.702 2.15578 47.7567 2.15578C47.8583 2.14797 47.9286 2.14406 47.9677 2.14406C48.0145 2.14406 48.0575 2.14016 48.0966 2.13234C48.12 2.14797 48.1395 2.1675 48.1552 2.19094C48.1708 2.21438 48.1864 2.23781 48.202 2.26125C48.3739 2.32375 48.5106 2.41359 48.6122 2.53078C48.7216 2.64016 48.8427 2.73391 48.9755 2.81203C49.0067 2.83547 49.038 2.855 49.0692 2.87063C49.1005 2.88625 49.1317 2.90188 49.163 2.9175C49.2333 2.96438 49.3036 3.01516 49.3739 3.06984C49.4442 3.12453 49.5184 3.17141 49.5966 3.21047C49.6747 3.24953 49.7177 3.27297 49.7255 3.28078C49.7411 3.28078 49.7528 3.28859 49.7606 3.30422C49.9325 3.36672 50.0848 3.45266 50.2177 3.56203C50.3583 3.66359 50.5067 3.75734 50.663 3.84328C50.7177 3.87453 50.7841 3.90578 50.8622 3.93703C50.9481 3.96828 51.0302 4.00344 51.1083 4.0425C51.1942 4.07375 51.2723 4.10891 51.3427 4.14797C51.4208 4.18703 51.4794 4.23 51.5184 4.27688C51.6044 4.36281 51.6786 4.42531 51.7411 4.46438C51.8114 4.49563 51.8778 4.53469 51.9403 4.58156L51.952 4.89797C51.952 4.95266 51.9442 5.00344 51.9286 5.05031C51.9208 5.09719 51.9169 5.14797 51.9169 5.20266C51.9169 5.24172 51.9247 5.28469 51.9403 5.33156ZM50.3348 5.02688C50.2489 4.98 50.163 4.93703 50.077 4.89797C49.9911 4.85109 49.9169 4.78859 49.8544 4.71047C49.7997 4.69484 49.702 4.65969 49.5614 4.605C49.4208 4.5425 49.2762 4.48 49.1278 4.4175C48.9872 4.34719 48.8544 4.28859 48.7294 4.24172C48.6122 4.18703 48.5458 4.15969 48.5302 4.15969C48.5067 4.1675 48.495 4.21828 48.495 4.31203C48.495 4.40578 48.495 4.50734 48.495 4.61672C48.495 4.72609 48.495 4.83156 48.495 4.93313C48.495 5.03469 48.495 5.09719 48.495 5.12063C48.495 5.26906 48.4911 5.41359 48.4833 5.55422C48.4755 5.69484 48.4637 5.83938 48.4481 5.98781C48.4325 6.01125 48.4208 6.03469 48.413 6.05813C48.4052 6.07375 48.3973 6.09328 48.3895 6.11672C48.3739 6.22609 48.3661 6.37063 48.3661 6.55031C48.3661 6.73 48.3661 6.87453 48.3661 6.98391C48.3661 7.03859 48.3661 7.08938 48.3661 7.13625C48.3661 7.18313 48.37 7.23781 48.3778 7.30031C48.4169 7.30031 48.4442 7.2925 48.4598 7.27688C48.4755 7.25344 48.5028 7.23391 48.5419 7.21828C48.6434 7.10891 48.745 7.00344 48.8466 6.90188C48.9481 6.80031 49.0536 6.69484 49.163 6.58547C49.2098 6.53859 49.2567 6.48781 49.3036 6.43313C49.3505 6.37844 49.4012 6.33156 49.4559 6.2925C49.495 6.24563 49.5302 6.20266 49.5614 6.16359C49.5927 6.11672 49.6278 6.07375 49.6669 6.03469C49.7762 5.9175 49.8895 5.80422 50.0067 5.69484C50.1239 5.57766 50.2216 5.44875 50.2997 5.30813C50.3544 5.26906 50.4052 5.20656 50.452 5.12063C50.3973 5.11281 50.3583 5.08156 50.3348 5.02688Z" fill="#FBDB5B"/>
</svg>
